<svg xmlns="http://www.w3.org/2000/svg" version="1.1" xmlns:xlink="http://www.w3.org/1999/xlink" xmlns:svgjs="http://svgjs.dev/svgjs" width="100%" height="100%" viewBox="0 0 1000 600"><rect width="1000" height="600" x="0" y="0" fill="#0284c7"/><g><rect width="333.3333333333333" height="333.3333333333333" rx="13.333333333333334" ry="13.333333333333334" y="168.40956329695612" fill="#E2V144" transform="matrix(0.8550672123286689,0,0,0.8550672123286689,0,13.487307278101085)" x="146.1873321533203"/><path d="M262.1723915216022 396.81914294623147L262.1723915216022 273.9097227732194L246.74695736858013 271.52179969259146L246.74695736858013 261.64073866930335L272.6298477712488 261.64073866930335Q278.7780635190726 261.64073866930335 290.223625871048 260.87221170082535L290.223625871048 260.87221170082535Q301.69663561475477 260.07623734061605 307.4331404866082 260.07623734061605L307.4331404866082 260.07623734061605Q344.1851980148938 260.07623734061605 362.0534500320066 278.5483319758186Q379.94914944085065 297.02042661102115 379.94914944085065 330.4239023480814L379.94914944085065 330.4239023480814Q379.94914944085065 353.75418531973395 370.7542732108464 371.8145690789662Q361.55939698084217 389.9024002299298 344.98117237510314 399.9755929953374Q328.37550037763276 410.0762331524764 306.8292978685183 410.0762331524764L306.8292978685183 410.0762331524764Q302.08089909899377 410.0762331524764 290.6353367470183 409.2802587922671L290.6353367470183 409.2802587922671Q278.7780635190726 408.4842844320578 272.8494269050997 408.4842844320578L272.8494269050997 408.4842844320578L245.75885126625133 408.4842844320578L245.75885126625133 398.7953551508891L262.1723915216022 396.81914294623147ZM283.1147514126268 397.4229855643213Q290.0314941289285 398.9874868930086 300.90066125454547 398.9874868930086L300.90066125454547 398.9874868930086L306.8292978685183 398.9874868930086Q321.6508894034506 398.7953551508891 333.014109580232 391.4943489503484Q344.3773297570133 384.1658953580764 350.6902298552252 369.64622513218904Q357.03057734516847 355.12655490630175 357.03057734516847 334.37632675739667L357.03057734516847 334.37632675739667Q357.03057734516847 303.14119496711356 343.49901322160997 286.94723384561354Q329.9400017063201 270.7532727241135 302.6847417170836 270.7532727241135L302.6847417170836 270.7532727241135Q296.9482368452302 270.7532727241135 289.0433880265997 271.52179969259146L289.0433880265997 271.52179969259146Q285.69480623537424 272.1256423106813 283.1147514126268 272.1256423106813L283.1147514126268 272.1256423106813L283.1147514126268 397.4229855643213Z " fill="#ffffff" transform="matrix(0.8550672123286689,0,0,0.8550672123286689,0,13.487307278101085)"/><path d="M579.2675453301958 396.81914294623147L579.2675453301958 273.9097227732194L563.8421111771738 271.52179969259146L563.8421111771738 261.64073866930335L589.7250015798425 261.64073866930335Q595.8732173276662 261.64073866930335 607.3187796796417 260.87221170082535L607.3187796796417 260.87221170082535Q618.7917894233485 260.07623734061605 624.5282942952019 260.07623734061605L624.5282942952019 260.07623734061605Q661.2803518234875 260.07623734061605 679.1486038406002 278.5483319758186Q697.0443032494444 297.02042661102115 697.0443032494444 330.4239023480814L697.0443032494444 330.4239023480814Q697.0443032494444 353.75418531973395 687.8494270194401 371.8145690789662Q678.6545507894358 389.9024002299298 662.0763261836969 399.9755929953374Q645.4706541862265 410.0762331524764 623.9244516771121 410.0762331524764L623.9244516771121 410.0762331524764Q619.1760529075875 410.0762331524764 607.730490555612 409.2802587922671L607.730490555612 409.2802587922671Q595.8732173276662 408.4842844320578 589.9445807136933 408.4842844320578L589.9445807136933 408.4842844320578L562.854005074845 408.4842844320578L562.854005074845 398.7953551508891L579.2675453301958 396.81914294623147ZM600.2099052212204 397.4229855643213Q607.1266479375222 398.9874868930086 617.9958150631392 398.9874868930086L617.9958150631392 398.9874868930086L623.9244516771121 398.9874868930086Q638.7460432120442 398.7953551508891 650.1092633888256 391.4943489503484Q661.472483565607 384.1658953580764 667.7853836638188 369.64622513218904Q674.1257311537621 355.12655490630175 674.1257311537621 334.37632675739667L674.1257311537621 334.37632675739667Q674.1257311537621 303.14119496711356 660.5941670302036 286.94723384561354Q647.0351555149138 270.7532727241135 619.7798955256774 270.7532727241135L619.7798955256774 270.7532727241135Q614.043390653824 270.7532727241135 606.1385418351933 271.52179969259146L606.1385418351933 271.52179969259146Q602.789960043968 272.1256423106813 600.2099052212204 272.1256423106813L600.2099052212204 272.1256423106813L600.2099052212204 397.4229855643213ZM729.0479620082054 396.81914294623147L729.0479620082054 273.9097227732194L712.8540008867054 271.52179969259146L712.8540008867054 261.64073866930335L813.448691582125 261.64073866930335L816.220878146992 292.2720278414966L804.9400001454047 292.2720278414966L799.2034952735513 273.1137484130101L750.2099010330809 271.9335105685618L750.2099010330809 327.65171578321446L783.2016658941708 327.07532055685596L785.9738524590376 310.6617803015051L796.8430195846547 310.6617803015051L796.8430195846547 356.11466100863055L785.9738524590376 356.11466100863055L783.2016658941708 339.1247255269212L750.2099010330809 338.5208829088314L750.2099010330809 397.4229855643213L805.9281062477336 395.4467733596637L816.4130098891115 370.55198905932383L828.0781513749378 374.09270259266873L822.3416465030843 408.4842844320578L712.6618691445859 408.4842844320578L712.6618691445859 398.7953551508891L729.0479620082054 396.81914294623147ZM857.7213344448022 396.81914294623147L857.7213344448022 273.9097227732194L840.7039515713615 271.52179969259146L840.7039515713615 261.64073866930335L946.4313045205448 261.64073866930335L948.4075167252023 295.23634614848305L935.5621373949277 295.23634614848305L929.6335007809549 273.3058801551296L878.8558260779463 271.9335105685618L878.8558260779463 329.24366450363306L914.6197775039032 328.63982188554326L917.99580668686 312.25372902192373L928.4532629365066 312.25372902192373L928.4532629365066 358.4751366975272L918.1879384289795 358.4751366975272L914.6197775039032 341.2930694736984L878.8558260779463 340.497095113489L878.8558260779463 396.81914294623147L909.679246992259 398.7953551508891L909.679246992259 408.4842844320578L841.9116368075412 408.4842844320578L841.9116368075412 398.7953551508891L857.7213344448022 396.81914294623147ZM983.5950729248008 396.81914294623147L983.5950729248008 273.9097227732194L965.2053204647922 271.52179969259146L965.2053204647922 261.64073866930335L1023.3114487600727 261.64073866930335L1023.3114487600727 271.52179969259146L1004.9491436917956 273.9097227732194L1004.9491436917956 396.81914294623147L1023.3114487600727 398.9874868930086L1023.3114487600727 408.4842844320578L965.424899598643 408.4842844320578L965.424899598643 398.7953551508891L983.5950729248008 396.81914294623147Z " fill="#ffffff" transform="matrix(0.8550672123286689,0,0,0.8550672123286689,0,13.487307278101085)"/></g></svg>